<svg height="105" viewBox="0 0 291 105" width="291" xmlns="http://www.w3.org/2000/svg"><path d="m59.7219 86.06c-1.872 1.196-4.264 1.872-7.228 1.872-7.748 0-12.792-4.992-12.792-15.236 0-9.984 4.628-15.132 12.48-15.132 2.964 0 5.98.78 7.8 1.872v5.772h2.184v-7.8c-2.444-1.82-5.876-3.328-11.024-3.328-12.324 0-18.096 8.892-18.096 19.032 0 10.868 6.552 18.304 17.784 18.304 5.2 0 8.944-1.508 11.076-3.328v-7.8h-2.184zm21.008 4.628v-1.664h-4.524v-16.796c1.196-1.04 3.692-2.288 6.188-2.288.572 0 1.3.052 1.716.208v3.744h1.976v-8.372c-.78-.156-1.56-.208-2.236-.208-4.056 0-6.188 2.964-8.164 5.616l.26-5.252h-9.256v1.716h3.796v21.632h-3.796v1.664zm21.0081.572c7.228 0 12.48-4.992 12.48-13.104 0-8.164-5.2-13-12.48-13-7.2281 0-12.4801 4.888-12.4801 13s5.2 13.104 12.4801 13.104zm0-2.704c-4.3681 0-6.3961-4.368-6.3961-10.348s2.08-10.348 6.3961-10.348c4.316 0 6.396 4.316 6.396 10.296s-2.08 10.4-6.396 10.4zm34.32-15.132v-5.876c-2.444-1.612-4.836-2.34-7.904-2.34-5.876 0-9.308 2.756-9.308 7.592 0 4.732 3.328 6.136 6.968 7.384 2.964.988 5.408 1.768 5.408 4.264 0 2.756-2.652 3.848-5.356 3.848-2.08 0-3.952-.676-5.148-1.456v-4.316h-2.028v6.24c2.496 1.612 4.888 2.444 8.216 2.444 6.24 0 9.828-2.86 9.828-8.008 0-5.044-3.484-6.292-7.228-7.696-3.328-1.092-5.304-1.872-5.304-4.16 0-2.444 2.288-3.38 4.784-3.38 2.08 0 4.056.624 5.044 1.248v4.212zm22.879 0v-5.876c-2.444-1.612-4.836-2.34-7.904-2.34-5.876 0-9.308 2.756-9.308 7.592 0 4.732 3.328 6.136 6.968 7.384 2.964.988 5.408 1.768 5.408 4.264 0 2.756-2.652 3.848-5.356 3.848-2.08 0-3.952-.676-5.148-1.456v-4.316h-2.028v6.24c2.496 1.612 4.888 2.444 8.216 2.444 6.24 0 9.828-2.86 9.828-8.008 0-5.044-3.484-6.292-7.228-7.696-3.328-1.092-5.304-1.872-5.304-4.16 0-2.444 2.288-3.38 4.784-3.38 2.08 0 4.056.624 5.044 1.248v4.212zm18.148 17.264v-1.82h-3.744v-23.192h-9.516v1.82h3.796v21.372h-3.796v1.82zm-6.656-30.576c2.236 0 3.484-1.508 3.484-3.536 0-1.924-1.248-3.536-3.484-3.536s-3.484 1.612-3.484 3.536c0 2.028 1.248 3.536 3.484 3.536zm39.156 30.576v-1.82h-3.744v-15.34c0-3.328-.624-4.94-1.924-6.344-1.404-1.404-3.38-2.028-5.824-2.028-4.264 0-6.812 2.288-8.788 4.68l.26-4.16h-9.256v1.82h3.796v21.372h-3.796v1.82h13v-1.82h-3.484v-17.784c1.664-1.092 3.484-1.924 5.72-1.924 3.536 0 4.576 1.716 4.576 5.72v13.988h-3.484v1.82zm28.183-22.256v-2.236h-8.58c-1.612-.676-3.38-1.04-5.356-1.04-6.188 0-10.504 3.484-10.504 8.84 0 3.9 2.184 6.708 5.772 8.008-2.444.832-4.732 2.444-4.732 5.304 0 1.508.572 2.808 1.976 3.64-2.132 1.248-3.796 3.276-3.796 6.136 0 4.16 3.692 7.384 11.856 7.384 9.776 0 12.844-4.628 12.844-9.308 0-6.5-6.24-7.176-11.336-7.436-5.304-.416-7.176-.416-7.176-2.184 0-1.196.988-2.184 2.496-2.964.832.156 1.716.208 2.704.208 6.344 0 10.66-3.484 10.66-8.684 0-2.236-.728-4.108-2.184-5.668zm-19.708 23.608c1.404.416 2.704.624 5.044.884 6.708.676 9.048 1.04 9.048 3.744 0 3.328-3.224 4.94-7.956 4.94s-8.788-1.612-8.788-5.096c0-1.664.988-3.224 2.652-4.472zm5.876-11.492c-3.484 0-4.94-3.172-4.94-6.552 0-3.536 1.508-6.656 4.992-6.656s4.94 3.068 4.94 6.552c0 3.536-1.508 6.656-4.992 6.656zm34.527-7.124v-5.876c-2.444-1.612-4.836-2.34-7.904-2.34-5.876 0-9.308 2.756-9.308 7.592 0 4.732 3.328 6.136 6.968 7.384 2.964.988 5.408 1.768 5.408 4.264 0 2.756-2.652 3.848-5.356 3.848-2.08 0-3.952-.676-5.148-1.456v-4.316h-2.028v6.24c2.496 1.612 4.888 2.444 8.216 2.444 6.24 0 9.828-2.86 9.828-8.008 0-5.044-3.484-6.292-7.228-7.696-3.328-1.092-5.304-1.872-5.304-4.16 0-2.444 2.288-3.38 4.784-3.38 2.08 0 4.056.624 5.044 1.248v4.212zm-235.635-34.736v-1.872h-5.096v-30.732h9.412v5.616h2.132v-8.892h-29.276v8.892h2.184v-5.616h9.412v30.732h-5.096v1.872zm21.632 0v-1.664h-4.524v-16.796c1.196-1.04 3.692-2.288 6.188-2.288.572 0 1.3.052 1.716.208v3.744h1.976v-8.372c-.78-.156-1.56-.208-2.236-.208-4.056 0-6.188 2.964-8.164 5.616l.26-5.252h-9.256v1.716h3.796v21.632h-3.796v1.664zm31.824-5.928c-.676 2.288-1.404 3.172-2.288 3.172-.78 0-1.352-.728-1.352-2.392v-11.752c0-3.38-.52-5.148-1.768-6.552-1.352-1.404-3.692-2.08-7.02-2.08-3.38 0-6.916.676-9.36 2.132v6.24h2.132v-4.42c1.092-.468 2.756-.936 4.888-.936 4.368 0 5.46 1.82 5.46 5.928v2.496c-9.62 0-13.832 1.976-13.832 7.592 0 4.576 2.704 6.916 7.02 6.916 3.796 0 5.928-1.872 7.54-4.108.26 2.652 1.664 3.952 4.264 3.952 3.12 0 4.68-1.508 5.876-5.512zm-9.308.884c-1.404 1.612-3.12 2.08-4.628 2.08-2.652 0-3.744-1.612-3.744-4.056 0-3.692 2.756-4.732 8.372-5.096zm42.172 5.044v-1.82h-3.744v-15.34c0-3.328-.624-4.94-1.924-6.344-1.404-1.404-3.38-2.028-5.824-2.028-4.264 0-6.812 2.288-8.788 4.68l.26-4.16h-9.256v1.82h3.796v21.372h-3.796v1.82h13v-1.82h-3.484v-17.784c1.664-1.092 3.484-1.924 5.72-1.924 3.536 0 4.576 1.716 4.576 5.72v13.988h-3.484v1.82zm21.007-17.264v-5.876c-2.444-1.612-4.836-2.34-7.904-2.34-5.876 0-9.308 2.756-9.308 7.592 0 4.732 3.328 6.136 6.968 7.384 2.964.988 5.408 1.768 5.408 4.264 0 2.756-2.652 3.848-5.356 3.848-2.08 0-3.952-.676-5.148-1.456v-4.316h-2.028v6.24c2.496 1.612 4.888 2.444 8.216 2.444 6.24 0 9.828-2.86 9.828-8.008 0-5.044-3.484-6.292-7.228-7.696-3.328-1.092-5.304-1.872-5.304-4.16 0-2.444 2.288-3.38 4.784-3.38 2.08 0 4.056.624 5.044 1.248v4.212zm18.408 30.784v-1.82h-4.004v-7.852l-.468-7.072c1.82 2.288 4.108 3.744 7.592 3.744 6.5 0 11.024-5.044 11.024-13.676 0-8.528-4.264-12.376-9.984-12.376-4.524 0-6.864 2.444-8.684 4.68l.26-4.16h-9.256v1.82h3.796v34.892h-3.796v1.82zm-4.004-32.968c1.04-.988 3.276-2.288 5.928-2.288 4.16 0 6.24 2.964 6.24 8.84 0 6.292-2.288 9.776-6.916 9.776-2.756 0-4.576-1.612-5.252-2.288zm45.76 13.52c-.676 2.288-1.404 3.172-2.288 3.172-.78 0-1.352-.728-1.352-2.392v-11.752c0-3.38-.52-5.148-1.768-6.552-1.352-1.404-3.692-2.08-7.02-2.08-3.38 0-6.916.676-9.36 2.132v6.24h2.132v-4.42c1.092-.468 2.756-.936 4.888-.936 4.368 0 5.46 1.82 5.46 5.928v2.496c-9.62 0-13.832 1.976-13.832 7.592 0 4.576 2.704 6.916 7.02 6.916 3.796 0 5.928-1.872 7.54-4.108.26 2.652 1.664 3.952 4.264 3.952 3.12 0 4.68-1.508 5.876-5.512zm-9.308.884c-1.404 1.612-3.12 2.08-4.628 2.08-2.652 0-3.744-1.612-3.744-4.056 0-3.692 2.756-4.732 8.372-5.096zm33.227-2.184c-.988 2.444-2.912 4.316-6.292 4.316-4.576 0-7.28-3.328-7.28-9.724 0-6.708 2.912-9.88 7.54-9.88 1.404 0 3.328.312 4.784 1.092v5.408h2.132v-7.228c-2.132-1.612-4.836-2.288-7.748-2.288-7.28 0-12.844 4.836-12.844 13.364 0 7.02 3.848 12.74 11.752 12.74 5.564 0 8.476-2.756 9.568-6.968zm18.148 7.228v-1.82h-3.744v-23.192h-9.516v1.82h3.796v21.372h-3.796v1.82zm-6.656-30.576c2.236 0 3.484-1.508 3.484-3.536 0-1.924-1.248-3.536-3.484-3.536s-3.484 1.612-3.484 3.536c0 2.028 1.248 3.536 3.484 3.536zm39.883 30.576v-1.82h-3.744v-23.192h-16.692v-2.236c0-6.188 1.3-8.424 4.992-8.424.78 0 1.664.052 2.34.312v-2.756c-.832-.364-1.768-.572-3.172-.572-6.084 0-9.88 3.588-9.88 11.284v2.392h-4.004v2.808h4.004v20.384h-3.744v1.82h13.156v-1.82h-3.692v-20.384h10.972v20.384h-3.692v1.82zm-6.656-30.576c2.236 0 3.484-1.508 3.484-3.536 0-1.924-1.248-3.536-3.484-3.536s-3.484 1.612-3.484 3.536c0 2.028 1.248 3.536 3.484 3.536zm30.212 23.348c-.988 2.444-2.912 4.316-6.292 4.316-4.576 0-7.28-3.328-7.28-9.724 0-6.708 2.912-9.88 7.54-9.88 1.404 0 3.328.312 4.784 1.092v5.408h2.132v-7.228c-2.132-1.612-4.836-2.288-7.748-2.288-7.28 0-12.844 4.836-12.844 13.364 0 7.02 3.848 12.74 11.752 12.74 5.564 0 8.476-2.756 9.568-6.968z" fill="#fefbf9" fill-rule="evenodd"/></svg>